# xmcd
#
# Track frame offsets:
#       150
#       29587
#       46317
#       61282
#       78940
#       89132
#       102367
#       116590
#       125762
#       138782
#       153332
#       172470
#       186265
#       205547
#       220540
#       238337
#       253292
#       266962
#       283355
#       295515
#       309052
#
# Disc length: 4310 seconds
#
# Revision: 3
# Processed by: cddbd v1.5.1PL0 Copyright (c) Steve Scherf et al.
# Submitted via: MusiCat 1.1
#
DISCID=4310d415
DTITLE=Ray Charles - His Greatest Hits [CD1)
DYEAR=1992
DGENRE=
TTITLE0=What'd I Say, Parts 1 and 2
TTITLE1=Georgia on My Mind
TTITLE2=Hardhearted Hannah
TTITLE3=Ruby
TTITLE4=Sticks and Stones
TTITLE5=Them That Got
TTITLE6=One Mint Julep
TTITLE7=Hit the Road Jack
TTITLE8=Unchain My Heart
TTITLE9=Hide Nor Hair
TTITLE10=Baby, it's Cold Outside
TTITLE11=At the Club
TTITLE12=I Can't Stop Loving You
TTITLE13=Born to Lose
TTITLE14=Careless Love
TTITLE15=You Don't Know Me
TTITLE16=You Are My Sunshine
TTITLE17=Your Cheating Heart
TTITLE18=Don't Set Me Free
TTITLE19=Take These Chains From My Heart
TTITLE20=No One
EXTD=\n\nMPC
EXTT0=
EXTT1=
EXTT2=
EXTT3=
EXTT4=
EXTT5=
EXTT6=
EXTT7=
EXTT8=
EXTT9=
EXTT10=
EXTT11=
EXTT12=
EXTT13=
EXTT14=
EXTT15=
EXTT16=
EXTT17=
EXTT18=
EXTT19=
EXTT20=
PLAYORDER=
